<?xml version="1.0" encoding="UTF-8" standalone="no"?>
<!-- Created with Inkscape (http://www.inkscape.org/) -->

<svg
   xmlns:dc="http://purl.org/dc/elements/1.1/"
   xmlns:cc="http://creativecommons.org/ns#"
   xmlns:rdf="http://www.w3.org/1999/02/22-rdf-syntax-ns#"
   xmlns:svg="http://www.w3.org/2000/svg"
   xmlns="http://www.w3.org/2000/svg"
   xmlns:sodipodi="http://sodipodi.sourceforge.net/DTD/sodipodi-0.dtd"
   xmlns:inkscape="http://www.inkscape.org/namespaces/inkscape"
   id="svg4357"
   version="1.1"
   inkscape:version="0.91 r13725"
   width="312.5"
   height="477.5"
   viewBox="0 0 312.5 477.5"
   sodipodi:docname="w10.svg">
  <metadata
     id="metadata4363">
    <rdf:RDF>
      <cc:Work
         rdf:about="">
        <dc:format>image/svg+xml</dc:format>
        <dc:type
           rdf:resource="http://purl.org/dc/dcmitype/StillImage" />
        <dc:title></dc:title>
      </cc:Work>
    </rdf:RDF>
  </metadata>
  <defs
     id="defs4361" />
  <sodipodi:namedview
     pagecolor="#ffffff"
     bordercolor="#666666"
     borderopacity="1"
     objecttolerance="10"
     gridtolerance="10"
     guidetolerance="10"
     inkscape:pageopacity="0"
     inkscape:pageshadow="2"
     inkscape:window-width="1440"
     inkscape:window-height="838"
     id="namedview4359"
     showgrid="false"
     inkscape:zoom="0.98848167"
     inkscape:cx="156.25"
     inkscape:cy="238.75"
     inkscape:window-x="-8"
     inkscape:window-y="-8"
     inkscape:window-maximized="1"
     inkscape:current-layer="svg4357" />
  <path
     style="fill:none;fill-rule:evenodd;stroke:#000000;stroke-width:1px;stroke-linecap:butt;stroke-linejoin:miter;stroke-opacity:1"
     d="m 300.46081,474.46504 8.09322,-159.8411 -2.02331,-12.13983 0,-48.55932 6.06992,-77.89725 -1.01166,-51.59428 -6.06991,-41.477752 -20.23305,1.011653 -4.04661,-43.50106 -54.62924,-2.023305 1.01165,-12.13983 -42.4894,-1.011653 -14.16314,10.116526 -20.23305,1.011652 -21.2447,13.151483 -11.12818,-6.069915 -3.03496,-6.069915 4.04661,-12.139831 -2.02331,-15.174788 4.04662,-7.0815676 -6.06992,0 -2.02331,-2.0233051 -17.198088,21.2447037 -22.256356,13.151483 -28.326272,4.04661 -26.302966,2.023305 -2.023305,21.244703 -7.081568,14.163136 9.104873,14.163136 7.081568,-9.104873 5.058263,1.011652 -1.011653,46.536022 -5.058262,13.15148 14.163135,10.11652 0,5.05827 -16.186441,5.05826 16.186441,6.06991 6.069915,9.10488 -5.058262,7.08157 6.069915,7.08156 18.209746,1.01166 0,6.06991 -10.116526,0 -2.023305,12.13983 -9.104873,5.05826 -2.023305,25.29132 -5.058262,2.0233 -5.058263,14.16314 -7.081568,3.03496 -14.163136,-1.01166 11.128178,7.08157 -2.023305,8.09322 4.04661,8.09322 0,8.09322 -18.2097453,6.06992 14.1631353,3.03495 7.081568,5.05827 5.058263,4.04661 16.186441,-12.13983 5.058262,4.04661 -6.069915,9.10487 9.104873,8.09322 9.104873,0 5.058262,10.11653 3.034958,5.05826 -4.04661,31.36123 14.163136,8.09322 0,8.09322 35.407841,0 1.01165,22.25635 15.17479,-4.04661 9.10487,9.10488 11.12818,-5.05827 0,10.11653 6.06991,12.13983 0,6.06992 10.11653,-3.03496 9.10487,11.12818 10.11653,-2.02331 17.19809,8.09322 11.12818,3.03496 9.10487,-3.03496 3.03496,9.10487 3.03496,9.10488 4.04661,11.12817 z"
     id="path4369"
     inkscape:connector-curvature="0" />
</svg>
