<?xml version="1.0" encoding="UTF-8" standalone="no"?>
<!-- Created with Inkscape (http://www.inkscape.org/) -->

<svg
   xmlns:dc="http://purl.org/dc/elements/1.1/"
   xmlns:cc="http://creativecommons.org/ns#"
   xmlns:rdf="http://www.w3.org/1999/02/22-rdf-syntax-ns#"
   xmlns:svg="http://www.w3.org/2000/svg"
   xmlns="http://www.w3.org/2000/svg"
   xmlns:sodipodi="http://sodipodi.sourceforge.net/DTD/sodipodi-0.dtd"
   xmlns:inkscape="http://www.inkscape.org/namespaces/inkscape"
   id="svg3336"
   version="1.1"
   inkscape:version="0.91 r13725"
   width="312.5"
   height="307.5"
   viewBox="0 0 312.5 307.5"
   sodipodi:docname="w11.svg">
  <metadata
     id="metadata3342">
    <rdf:RDF>
      <cc:Work
         rdf:about="">
        <dc:format>image/svg+xml</dc:format>
        <dc:type
           rdf:resource="http://purl.org/dc/dcmitype/StillImage" />
        <dc:title></dc:title>
      </cc:Work>
    </rdf:RDF>
  </metadata>
  <defs
     id="defs3340" />
  <sodipodi:namedview
     pagecolor="#ffffff"
     bordercolor="#666666"
     borderopacity="1"
     objecttolerance="10"
     gridtolerance="10"
     guidetolerance="10"
     inkscape:pageopacity="0"
     inkscape:pageshadow="2"
     inkscape:window-width="1440"
     inkscape:window-height="838"
     id="namedview3338"
     showgrid="false"
     inkscape:zoom="2.0780488"
     inkscape:cx="156.25"
     inkscape:cy="153.75"
     inkscape:window-x="-8"
     inkscape:window-y="-8"
     inkscape:window-maximized="1"
     inkscape:current-layer="svg3336" />
  <path
     style="fill:none;fill-rule:evenodd;stroke:#000000;stroke-width:1px;stroke-linecap:butt;stroke-linejoin:miter;stroke-opacity:1"
     d="m 0.96244131,32.241784 8.18075119,84.213616 0,68.81455 -2.4061033,0.48122 1.443662,37.05399 -1.443662,78.43897 76.9953048,-0.48122 16.361506,5.77465 10.58685,-1.92488 4.33099,-4.33099 7.21831,0.48122 3.36854,4.33099 26.46714,1.92488 6.73709,-5.77465 -0.96244,-17.80516 -1.92489,-3.84977 0.96244,-24.06103 -4.33098,-14.91784 0.96244,-27.9108 9.14319,-17.32394 1.44366,-7.69953 -3.36854,-11.5493 -2.88732,-7.69953 1.44366,-33.20423 53.89671,0 35.61033,17.80517 12.51174,-0.48122 8.18075,-2.4061 6.73709,0.48122 9.14319,0 0.96244,-3.36855 15.88028,-2.4061 9.62442,-10.10564 -3.84977,-36.091545 -0.48122,-43.79108 -3.84977,-4.812207 -6.25586,-0.48122 -0.96245,-3.849766 -35.61032,-12.030516 -1.44367,6.737089 -11.06807,-7.21831 -27.42958,0.481221 -12.99296,4.812207 -0.48122,-37.53521169 -13.47418,0.96244129 -17.80516,14.9178404 -4.33099,5.774648 -14.43662,9.143192 z"
     id="path3348"
     inkscape:connector-curvature="0" />
</svg>
