<?xml version="1.0" encoding="UTF-8" standalone="no"?>
<!-- Created with Inkscape (http://www.inkscape.org/) -->

<svg
   xmlns:dc="http://purl.org/dc/elements/1.1/"
   xmlns:cc="http://creativecommons.org/ns#"
   xmlns:rdf="http://www.w3.org/1999/02/22-rdf-syntax-ns#"
   xmlns:svg="http://www.w3.org/2000/svg"
   xmlns="http://www.w3.org/2000/svg"
   xmlns:sodipodi="http://sodipodi.sourceforge.net/DTD/sodipodi-0.dtd"
   xmlns:inkscape="http://www.inkscape.org/namespaces/inkscape"
   id="svg4172"
   version="1.1"
   inkscape:version="0.91 r13725"
   width="312.5"
   height="326.25"
   viewBox="0 0 312.5 326.25"
   sodipodi:docname="w2.svg">
  <metadata
     id="metadata4178">
    <rdf:RDF>
      <cc:Work
         rdf:about="">
        <dc:format>image/svg+xml</dc:format>
        <dc:type
           rdf:resource="http://purl.org/dc/dcmitype/StillImage" />
        <dc:title></dc:title>
      </cc:Work>
    </rdf:RDF>
  </metadata>
  <defs
     id="defs4176" />
  <sodipodi:namedview
     pagecolor="#ffffff"
     bordercolor="#666666"
     borderopacity="1"
     objecttolerance="10"
     gridtolerance="10"
     guidetolerance="10"
     inkscape:pageopacity="0"
     inkscape:pageshadow="2"
     inkscape:window-width="1440"
     inkscape:window-height="838"
     id="namedview4174"
     showgrid="false"
     inkscape:zoom="2.046004"
     inkscape:cx="156.25"
     inkscape:cy="182.6753"
     inkscape:window-x="-8"
     inkscape:window-y="-8"
     inkscape:window-maximized="1"
     inkscape:current-layer="svg4172" />
  <path
     style="fill:none;fill-rule:evenodd;stroke:#000000;stroke-width:1px;stroke-linecap:butt;stroke-linejoin:miter;stroke-opacity:1"
     d="m 1.9550304,174.24639 0,-18.57279 7.8201216,0.48875 11.730182,7.82013 16.129001,-12.21894 11.730183,-15.64025 0.488757,-5.86509 15.640243,0 5.865092,-7.82012 -0.488758,-8.30888 4.398819,-0.97751 2.443788,2.93254 0.488757,-8.30888 9.286395,-3.4213 15.640239,-15.640244 13.19646,-8.308879 4.88757,-2.932546 6.35385,-8.308879 -0.97751,-3.910061 6.35385,0.977515 -0.48876,2.443788 6.84261,0.488758 15.15148,-8.308879 -0.48876,-59.1396699 51.31955,-0.97751519 0.48876,118.27934209 1.95503,1.46627 22.97161,0 16.129,10.75267 62.56097,0 L 312.5,326.25 104.10537,325.76124 104.59413,253.91388 34.213032,187.9316 11.241425,183.04402 Z"
     id="path4184"
     inkscape:connector-curvature="0" />
</svg>
