<?xml version="1.0" encoding="UTF-8" standalone="no"?>
<!-- Created with Inkscape (http://www.inkscape.org/) -->

<svg
   xmlns:dc="http://purl.org/dc/elements/1.1/"
   xmlns:cc="http://creativecommons.org/ns#"
   xmlns:rdf="http://www.w3.org/1999/02/22-rdf-syntax-ns#"
   xmlns:svg="http://www.w3.org/2000/svg"
   xmlns="http://www.w3.org/2000/svg"
   xmlns:sodipodi="http://sodipodi.sourceforge.net/DTD/sodipodi-0.dtd"
   xmlns:inkscape="http://www.inkscape.org/namespaces/inkscape"
   id="svg4216"
   version="1.1"
   inkscape:version="0.91 r13725"
   width="312.5"
   height="455"
   viewBox="0 0 312.5 455"
   sodipodi:docname="w4.svg">
  <metadata
     id="metadata4222">
    <rdf:RDF>
      <cc:Work
         rdf:about="">
        <dc:format>image/svg+xml</dc:format>
        <dc:type
           rdf:resource="http://purl.org/dc/dcmitype/StillImage" />
        <dc:title></dc:title>
      </cc:Work>
    </rdf:RDF>
  </metadata>
  <defs
     id="defs4220" />
  <sodipodi:namedview
     pagecolor="#ffffff"
     bordercolor="#666666"
     borderopacity="1"
     objecttolerance="10"
     gridtolerance="10"
     guidetolerance="10"
     inkscape:pageopacity="0"
     inkscape:pageshadow="2"
     inkscape:window-width="1440"
     inkscape:window-height="838"
     id="namedview4218"
     showgrid="false"
     inkscape:zoom="1.0373626"
     inkscape:cx="156.25"
     inkscape:cy="227.5"
     inkscape:window-x="-8"
     inkscape:window-y="-8"
     inkscape:window-maximized="1"
     inkscape:current-layer="svg4216" />
  <path
     style="fill:none;fill-rule:evenodd;stroke:#000000;stroke-width:1px;stroke-linecap:butt;stroke-linejoin:miter;stroke-opacity:1"
     d="m 22.17161,-0.96398329 0.963983,203.40042329 -24.09957605,0 2.89194915,205.32839 46.2711869,-0.96398 -1.927967,5.7839 9.639831,-1.92797 74.226693,31.81144 -0.96398,5.7839 7.71186,5.7839 23.1356,0.96398 0,-8.67585 20.24364,-1.92796 4.81992,0.96398 20.24364,2.89195 4.81992,-4.81992 16.38771,-3.85593 2.89195,7.71187 41.45127,-0.96399 -1.92797,-148.45339 -6.74788,-6.74788 -13.49576,-8.67585 -15.42373,-4.81991 -6.74788,-5.7839 -6.74788,-9.63983 -0.96399,-11.5678 11.5678,-8.67584 25.06356,-3.85594 15.42373,-3.85593 9.63983,-4.81991 7.71186,-12.53178 0,-28.9195 2.89195,-14.45974 11.5678,-17.3517 8.67585,-6.74788 -2.89195,-15.42373 -10.60382,-4.81991 -18.31568,5.7839 -11.56779,0.96398 0,-135.92161024007458 L 22.17161,2.8919489 Z"
     id="path4226"
     inkscape:connector-curvature="0" />
</svg>
