<?xml version="1.0" encoding="UTF-8" standalone="no"?>
<!-- Created with Inkscape (http://www.inkscape.org/) -->

<svg
   xmlns:dc="http://purl.org/dc/elements/1.1/"
   xmlns:cc="http://creativecommons.org/ns#"
   xmlns:rdf="http://www.w3.org/1999/02/22-rdf-syntax-ns#"
   xmlns:svg="http://www.w3.org/2000/svg"
   xmlns="http://www.w3.org/2000/svg"
   xmlns:sodipodi="http://sodipodi.sourceforge.net/DTD/sodipodi-0.dtd"
   xmlns:inkscape="http://www.inkscape.org/namespaces/inkscape"
   id="svg4237"
   version="1.1"
   inkscape:version="0.91 r13725"
   width="312.5"
   height="425"
   viewBox="0 0 312.5 425"
   sodipodi:docname="w5.svg">
  <metadata
     id="metadata4243">
    <rdf:RDF>
      <cc:Work
         rdf:about="">
        <dc:format>image/svg+xml</dc:format>
        <dc:type
           rdf:resource="http://purl.org/dc/dcmitype/StillImage" />
        <dc:title></dc:title>
      </cc:Work>
    </rdf:RDF>
  </metadata>
  <defs
     id="defs4241" />
  <sodipodi:namedview
     pagecolor="#ffffff"
     bordercolor="#666666"
     borderopacity="1"
     objecttolerance="10"
     gridtolerance="10"
     guidetolerance="10"
     inkscape:pageopacity="0"
     inkscape:pageshadow="2"
     inkscape:window-width="1440"
     inkscape:window-height="838"
     id="namedview4239"
     showgrid="false"
     inkscape:zoom="1.1105882"
     inkscape:cx="156.25"
     inkscape:cy="212.5"
     inkscape:window-x="-8"
     inkscape:window-y="-8"
     inkscape:window-maximized="1"
     inkscape:current-layer="svg4237" />
  <path
     style="fill:none;fill-rule:evenodd;stroke:#000000;stroke-width:1px;stroke-linecap:butt;stroke-linejoin:miter;stroke-opacity:1"
     d="M 0.90042373,33.315678 0,425 l 90.042373,0 2.701271,-5.40254 -14.40678,-18.00848 -4.502118,-3.60169 -6.302966,-41.41949 -1.800848,-15.30721 4.502119,-12.60593 8.103813,-9.00424 15.307204,-8.10381 9.004242,-9.00424 5.40254,-15.3072 0.90042,-11.70551 7.20339,-8.10381 9.00424,-8.10382 9.00424,-9.00423 7.20339,-8.10382 9.00423,-8.10381 6.30297,-10.80509 1.80085,-9.90466 8.10381,-2.70127 9.00424,-9.00423 4.50212,-14.40678 -1.80085,-10.80509 -6.30297,-7.20339 -9.00423,-2.70127 -15.30721,-8.10381 -10.80508,-8.10382 -4.50212,-9.90466 0,-12.60593 5.40254,-9.00424 11.70551,-5.40254 14.40678,3.60169 10.80508,8.10382 12.60594,11.70551 9.90466,6.30296 12.60593,-0.90042 7.20339,-13.50636 1.80085,-10.80508 -3.6017,-15.30721 -2.70127,-13.506351 -2.70127,-6.302966 0.90042,-10.805085 11.70551,-9.904661 26.11229,-9.904661 13.50636,-1.800847 25.21186,-2.701272 8.10381,0 14.40678,-10.805084 3.6017,-4.502119 -17.10805,-0.900424 -2.70127,-4.502118 0,-3.601695 2.70127,-3.601695 0,-3.601695 -4.50212,-0.900424 -0.90043,-5.4025422 -3.60169,0.9004242 -1.80085,4.502118 -4.50212,-0.900424 -3.60169,-4.5021182 0,-3.6016949 -117.05509,0.9004237 -11.7055,-0.9004237 -16.20763,-4.5021187 -4.50212,0 -3.6017,0 1.80085,15.3072038 3.6017,2.701271 0,13.506356 z"
     id="path4247"
     inkscape:connector-curvature="0" />
</svg>
