<?xml version="1.0" encoding="UTF-8" standalone="no"?>
<!-- Created with Inkscape (http://www.inkscape.org/) -->

<svg
   xmlns:dc="http://purl.org/dc/elements/1.1/"
   xmlns:cc="http://creativecommons.org/ns#"
   xmlns:rdf="http://www.w3.org/1999/02/22-rdf-syntax-ns#"
   xmlns:svg="http://www.w3.org/2000/svg"
   xmlns="http://www.w3.org/2000/svg"
   xmlns:sodipodi="http://sodipodi.sourceforge.net/DTD/sodipodi-0.dtd"
   xmlns:inkscape="http://www.inkscape.org/namespaces/inkscape"
   id="svg4268"
   version="1.1"
   inkscape:version="0.91 r13725"
   width="312.5"
   height="156.25"
   viewBox="0 0 312.5 156.25"
   sodipodi:docname="w6.svg">
  <metadata
     id="metadata4274">
    <rdf:RDF>
      <cc:Work
         rdf:about="">
        <dc:format>image/svg+xml</dc:format>
        <dc:type
           rdf:resource="http://purl.org/dc/dcmitype/StillImage" />
        <dc:title></dc:title>
      </cc:Work>
    </rdf:RDF>
  </metadata>
  <defs
     id="defs4272" />
  <sodipodi:namedview
     pagecolor="#ffffff"
     bordercolor="#666666"
     borderopacity="1"
     objecttolerance="10"
     gridtolerance="10"
     guidetolerance="10"
     inkscape:pageopacity="0"
     inkscape:pageshadow="2"
     inkscape:window-width="1440"
     inkscape:window-height="838"
     id="namedview4270"
     showgrid="false"
     inkscape:zoom="2.8782074"
     inkscape:cx="156.25"
     inkscape:cy="78.125"
     inkscape:window-x="-8"
     inkscape:window-y="-8"
     inkscape:window-maximized="1"
     inkscape:current-layer="svg4268" />
  <path
     style="fill:none;fill-rule:evenodd;stroke:#000000;stroke-width:1px;stroke-linecap:butt;stroke-linejoin:miter;stroke-opacity:1"
     d="M 1.7371924,11.368156 226.87732,10.67328 l 5.21158,-1.0423159 6.94877,0.3474385 5.21158,-4.5167002 7.2962,-0.3474385 10.7706,-3.1269462 29.53227,0 -4.16926,5.5590155 1.38975,18.0668008 -4.5167,4.169262 -1.73719,5.906454 -2.77951,10.770592 -5.21158,7.296208 3.82183,7.643647 3.12694,-1.042316 5.90646,-7.643646 7.64364,-1.737193 14.93986,23.278378 1.04231,6.94877 -1.38975,10.423154 -6.94877,5.559015 -27.79508,-3.474384 -20.84631,2.084631 -10.42315,9.380834 -3.47439,15.98217 0,16.32961 -11.46547,15.98217 -8.68596,2.43207 -20.15143,-12.16035 -18.0668,-6.25389 -33.35409,-1.73719 -20.49887,-10.42315 -20.15143,-13.89754 -12.855228,-6.94877 -17.719362,1.38975 -12.507785,4.5167 -2.43207,-2.77951 0.347439,-9.380835 -5.211577,0.694877 -8.338524,-4.5167 -7.991085,4.169261 -7.296208,-0.347438 -0.694877,-1.389754 -2.779507,-0.347438 -3.821824,-1.737193 -5.211577,1.737193 -6.601331,-5.211578 -2.779507,-0.694877 0,-3.474384 -6.9487699,-1.389754 -4.1692617,2.432069 z"
     id="path4278"
     inkscape:connector-curvature="0" />
</svg>
