<?xml version="1.0" encoding="UTF-8" standalone="no"?>
<!-- Created with Inkscape (http://www.inkscape.org/) -->

<svg
   xmlns:dc="http://purl.org/dc/elements/1.1/"
   xmlns:cc="http://creativecommons.org/ns#"
   xmlns:rdf="http://www.w3.org/1999/02/22-rdf-syntax-ns#"
   xmlns:svg="http://www.w3.org/2000/svg"
   xmlns="http://www.w3.org/2000/svg"
   xmlns:sodipodi="http://sodipodi.sourceforge.net/DTD/sodipodi-0.dtd"
   xmlns:inkscape="http://www.inkscape.org/namespaces/inkscape"
   id="svg4289"
   version="1.1"
   inkscape:version="0.91 r13725"
   width="312.5"
   height="258.75"
   viewBox="0 0 312.5 258.75"
   sodipodi:docname="w7.svg">
  <metadata
     id="metadata4295">
    <rdf:RDF>
      <cc:Work
         rdf:about="">
        <dc:format>image/svg+xml</dc:format>
        <dc:type
           rdf:resource="http://purl.org/dc/dcmitype/StillImage" />
        <dc:title></dc:title>
      </cc:Work>
    </rdf:RDF>
  </metadata>
  <defs
     id="defs4293" />
  <sodipodi:namedview
     pagecolor="#ffffff"
     bordercolor="#666666"
     borderopacity="1"
     objecttolerance="10"
     gridtolerance="10"
     guidetolerance="10"
     inkscape:pageopacity="0"
     inkscape:pageshadow="2"
     inkscape:window-width="1440"
     inkscape:window-height="838"
     id="namedview4291"
     showgrid="false"
     inkscape:zoom="1.8241546"
     inkscape:cx="156.25"
     inkscape:cy="129.375"
     inkscape:window-x="-8"
     inkscape:window-y="-8"
     inkscape:window-maximized="1"
     inkscape:current-layer="svg4289" />
  <path
     style="fill:none;fill-rule:evenodd;stroke:#000000;stroke-width:1px;stroke-linecap:butt;stroke-linejoin:miter;stroke-opacity:1"
     d="M 0,0 2.7409958,105.25424 0,120.05561 l 1.0963983,36.72935 3.2891949,7.67479 0,43.85593 5.4819916,-1.0964 4.9337922,-5.48199 9.867585,-1.0964 8.771186,-2.741 28.506356,1.6446 -4.385593,7.67479 1.096398,16.44597 -4.385593,4.9338 -3.289195,13.15678 -4.933792,14.25317 4.385593,-3.28919 2.740996,3.28919 1.644597,-7.12658 9.319386,-3.2892 -1.644598,-7.67479 2.192797,-7.12659 7.126589,-4.93379 10.963983,-2.74099 12.060381,0 9.319387,3.28919 8.77119,2.1928 9.86758,0 9.31939,-2.1928 8.77118,-2.741 10.41579,-7.67478 9.31938,-7.12659 8.77119,-6.57839 7.67479,-7.67479 9.31938,-4.93379 15.34958,-1.6446 10.96398,2.741 12.60858,9.31938 9.31939,7.12659 3.28919,4.93379 0,9.31939 1.0964,3.28919 17.54237,16.44598 16.44598,3.83739 14.25318,-6.57839 9.86758,-14.80138 2.1928,-13.15678 0,-12.06038 2.19279,-13.15678 2.741,-9.31938 8.22299,-13.70498 -3.2892,-4.38559 -1.6446,-1.0964 1.6446,-3.8374 -44.40413,-23.57256 -63.5911,-23.02436 -8.22299,1.64459 0,-7.67479 -58.65731,-1.096393 -5.48199,8.222983 -0.5482,-98.1276445 -7.67479,0 L 98.127648,1.0963982 54.819915,0.54819902 40.566737,6.5783897 l -12.060381,0 -12.608581,-3.2891949 z"
     id="path4299"
     inkscape:connector-curvature="0" />
</svg>
