<?xml version="1.0" encoding="UTF-8" standalone="no"?>
<!-- Created with Inkscape (http://www.inkscape.org/) -->

<svg
   xmlns:dc="http://purl.org/dc/elements/1.1/"
   xmlns:cc="http://creativecommons.org/ns#"
   xmlns:rdf="http://www.w3.org/1999/02/22-rdf-syntax-ns#"
   xmlns:svg="http://www.w3.org/2000/svg"
   xmlns="http://www.w3.org/2000/svg"
   xmlns:sodipodi="http://sodipodi.sourceforge.net/DTD/sodipodi-0.dtd"
   xmlns:inkscape="http://www.inkscape.org/namespaces/inkscape"
   id="svg4310"
   version="1.1"
   inkscape:version="0.91 r13725"
   width="312.5"
   height="205"
   viewBox="0 0 312.5 205"
   sodipodi:docname="w8.svg">
  <metadata
     id="metadata4316">
    <rdf:RDF>
      <cc:Work
         rdf:about="">
        <dc:format>image/svg+xml</dc:format>
        <dc:type
           rdf:resource="http://purl.org/dc/dcmitype/StillImage" />
        <dc:title></dc:title>
      </cc:Work>
    </rdf:RDF>
  </metadata>
  <defs
     id="defs4314" />
  <sodipodi:namedview
     pagecolor="#ffffff"
     bordercolor="#666666"
     borderopacity="1"
     objecttolerance="10"
     gridtolerance="10"
     guidetolerance="10"
     inkscape:pageopacity="0"
     inkscape:pageshadow="2"
     inkscape:window-width="1440"
     inkscape:window-height="838"
     id="namedview4312"
     showgrid="false"
     inkscape:zoom="2.8782074"
     inkscape:cx="156.25"
     inkscape:cy="102.5"
     inkscape:window-x="-8"
     inkscape:window-y="-8"
     inkscape:window-maximized="1"
     inkscape:current-layer="svg4310" />
  <path
     style="fill:none;fill-rule:evenodd;stroke:#000000;stroke-width:1px;stroke-linecap:butt;stroke-linejoin:miter;stroke-opacity:1"
     d="m 298.10221,70.541311 13.5501,0 0,46.209319 -12.16035,0.34744 -32.65921,28.83739 -1.73719,-1.73719 -145.92416,2.7795 5.90645,55.9376 -9.38084,0 0.34744,-19.10912 -28.489955,-0.69487 0.347439,-6.94877 -24.668132,-0.34744 -5.211577,4.86414 -7.296208,0 -14.592416,7.2962 -4.5167,-4.86413 3.126946,-5.90646 0,-7.64364 2.779508,-3.47439 -7.991085,-2.08463 1.389754,-4.5167 1.042316,-7.64365 -1.389754,-6.60133 -4.864139,-10.77059 -8.685962,-6.60133 -6.948769,-4.5167 -5.9064543,-6.60133 -3.47438475,-8.33853 -0.34743848,-10.075711 4.16926173,-9.033401 5.9064538,-3.821823 8.338524,-1.737192 7.296208,-0.694877 6.948769,2.779508 7.643646,4.5167 9.728278,8.338523 8.685962,3.126943 6.601331,3.12695 7.991084,1.73719 10.075716,0.34744 6.601331,-0.34744 7.296208,2.43207 6.253889,3.47439 6.94877,3.82182 6.60133,3.47438 6.60134,-1.04231 5.90645,-6.60133 3.12695,-10.07572 -0.34744,-12.507783 2.43207,-7.296208 5.21157,-4.5167 5.90646,-1.389754 9.72827,-0.347439 9.38084,0 6.2539,1.737193 5.55901,-0.694877 5.21158,-4.864139 1.38975,-7.643646 -2.08463,-5.211577 -9.38084,-13.550101 -2.08463,-8.338523 1.73719,-6.253893 6.60134,-4.5167 11.46547,-0.347438 7.2962,1.737192 9.0334,1.737192 9.38084,-0.347438 8.68596,-3.474385 7.99109,-4.169262 8.33852,-6.253892 7.99109,-8.3385236 7.29621,-4.1692616 6.25389,-2.43206936 12.16034,-0.34743847 9.72828,4.16926173 6.94877,5.5590153 6.25389,7.643647 z"
     id="path4320"
     inkscape:connector-curvature="0" />
</svg>
