<?xml version="1.0" encoding="UTF-8" standalone="no"?>
<!-- Created with Inkscape (http://www.inkscape.org/) -->

<svg
   xmlns:dc="http://purl.org/dc/elements/1.1/"
   xmlns:cc="http://creativecommons.org/ns#"
   xmlns:rdf="http://www.w3.org/1999/02/22-rdf-syntax-ns#"
   xmlns:svg="http://www.w3.org/2000/svg"
   xmlns="http://www.w3.org/2000/svg"
   xmlns:sodipodi="http://sodipodi.sourceforge.net/DTD/sodipodi-0.dtd"
   xmlns:inkscape="http://www.inkscape.org/namespaces/inkscape"
   id="svg4331"
   version="1.1"
   inkscape:version="0.91 r13725"
   width="312.5"
   height="351.25"
   viewBox="0 0 312.5 351.25"
   sodipodi:docname="w9.svg">
  <metadata
     id="metadata4337">
    <rdf:RDF>
      <cc:Work
         rdf:about="">
        <dc:format>image/svg+xml</dc:format>
        <dc:type
           rdf:resource="http://purl.org/dc/dcmitype/StillImage" />
        <dc:title></dc:title>
      </cc:Work>
    </rdf:RDF>
  </metadata>
  <defs
     id="defs4335" />
  <sodipodi:namedview
     pagecolor="#ffffff"
     bordercolor="#666666"
     borderopacity="1"
     objecttolerance="10"
     gridtolerance="10"
     guidetolerance="10"
     inkscape:pageopacity="0"
     inkscape:pageshadow="2"
     inkscape:window-width="1440"
     inkscape:window-height="838"
     id="namedview4333"
     showgrid="false"
     inkscape:zoom="2.6875445"
     inkscape:cx="156.25"
     inkscape:cy="340.26661"
     inkscape:window-x="-8"
     inkscape:window-y="-8"
     inkscape:window-maximized="1"
     inkscape:current-layer="svg4331" />
  <path
     style="fill:none;fill-rule:evenodd;stroke:#000000;stroke-width:1px;stroke-linecap:butt;stroke-linejoin:miter;stroke-opacity:1"
     d="m 25.301907,349.76165 -6.697564,-20.83686 4.465043,-3.72087 -14.1393012,-22.32521 -7.4417373,-29.76695 0,-25.30191 5.2092161,-8.93008 13.3951274,-9.67426 7.441737,-5.20922 5.209216,-5.95339 2.976695,-8.93008 2.232521,-10.41843 0.744174,-5.20922 16.371822,-12.65095 21.581038,-24.55774 5.209216,-6.69756 0.744174,-7.44174 2.976695,-0.74417 8.185911,-2.9767 5.209216,-10.41843 0,-16.37182 -4.465042,-7.44174 -8.930085,-4.46504 -11.90678,-5.95339 -5.95339,-5.209216 -6.697563,-7.441738 -1.488348,-5.95339 -0.744173,-8.930084 4.465042,-6.697564 5.209216,-2.976695 6.697564,-1.488347 10.418432,2.976695 8.185911,8.185911 6.69756,7.441737 8.93009,5.95339 8.93008,2.976695 8.18591,-3.720869 6.69757,-7.441737 1.48834,-8.930085 0,-11.162606 -4.46504,-12.650953 -3.72087,-5.95339 0,-11.90678 6.69757,-5.95339 8.18591,-5.9533894 12.65095,-5.2092161 6.69757,-1.4883475 9.67425,-0.7441737 2.9767,0.7441737 -1.48835,11.90678 -5.20921,2.976695 8.18591,11.162606 2.97669,-8.185911 0,23.069385 -1.48835,3.720869 2.23253,3.720868 3.72086,2.976695 0,2.976695 -3.72086,0.744174 -4.46505,1.488347 2.23252,2.976695 5.20922,-0.744173 2.97669,5.953389 0.74418,3.720869 1.48835,1.488348 4.46504,0.744173 3.72087,0.744174 0,2.976695 -3.72087,0 -1.48835,2.232521"
     id="path4341"
     inkscape:connector-curvature="0" />
  <path
     style="fill:none;fill-rule:evenodd;stroke:#000000;stroke-width:1px;stroke-linecap:butt;stroke-linejoin:miter;stroke-opacity:1"
     d="m 186.04343,81.85911 -1.48835,15.627648 -2.97669,1.488348 -1.48835,3.720864 -8.93008,2.23253 -3.72087,0 1.48835,3.72086 3.72087,2.9767 0,8.18591 -8.18592,4.46504 7.44174,1.48835 5.95339,3.72087 2.9767,2.97669 4.46504,-6.69756 1.48835,5.95339 5.20921,4.46504 4.46504,1.48835 0.74418,2.97669 0.74417,14.88348 5.20922,5.20922"
     id="path4343"
     inkscape:connector-curvature="0" />
  <path
     style="fill:none;fill-rule:evenodd;stroke:#000000;stroke-width:1px;stroke-linecap:butt;stroke-linejoin:miter;stroke-opacity:1"
     d="m 203.15943,160.74153 -4.46504,4.46504 22.32521,0 0,10.41843 9.67426,0.74417 5.20921,5.95339 2.23252,-4.46504 2.9767,8.18591 0,5.20922 -1.48835,4.46504 7.44174,-4.46504 2.23252,-2.23252 2.23252,3.72087 7.44174,0.74417 4.46504,2.97669 6.69756,1.48835 5.20922,0.74418 2.23252,8.93008 0,2.9767 35.72034,0 -1.48835,25.3019 -1.48834,44.65043 -6.69757,21.58103 -6.69756,1.48835 -16.37182,44.65043 -255.251593,2.23252"
     id="path4345"
     inkscape:connector-curvature="0" />
  <path
     style="fill:none;fill-rule:evenodd;stroke:#000000;stroke-width:1px;stroke-linecap:butt;stroke-linejoin:miter;stroke-opacity:1"
     d="m 185.29926,83.719548 4.83713,-5.58131"
     id="path4347"
     inkscape:connector-curvature="0" />
  <path
     style="fill:none;fill-rule:evenodd;stroke:#000000;stroke-width:1px;stroke-linecap:butt;stroke-linejoin:miter;stroke-opacity:1"
     d="M 25.673994,350.50583 24.92982,349.01748"
     id="path4355"
     inkscape:connector-curvature="0" />
</svg>
