<?xml version="1.0" encoding="UTF-8" standalone="no"?>
<!-- Created with Inkscape (http://www.inkscape.org/) -->

<svg
   xmlns:dc="http://purl.org/dc/elements/1.1/"
   xmlns:cc="http://creativecommons.org/ns#"
   xmlns:rdf="http://www.w3.org/1999/02/22-rdf-syntax-ns#"
   xmlns:svg="http://www.w3.org/2000/svg"
   xmlns="http://www.w3.org/2000/svg"
   xmlns:sodipodi="http://sodipodi.sourceforge.net/DTD/sodipodi-0.dtd"
   xmlns:inkscape="http://www.inkscape.org/namespaces/inkscape"
   id="svg3336"
   version="1.1"
   inkscape:version="0.91 r13725"
   width="222.1875"
   height="193.125"
   viewBox="0 0 222.1875 193.125"
   sodipodi:docname="ward1.svg">
  <metadata
     id="metadata3342">
    <rdf:RDF>
      <cc:Work
         rdf:about="">
        <dc:format>image/svg+xml</dc:format>
        <dc:type
           rdf:resource="http://purl.org/dc/dcmitype/StillImage" />
        <dc:title></dc:title>
      </cc:Work>
    </rdf:RDF>
  </metadata>
  <defs
     id="defs3340" />
  <sodipodi:namedview
     pagecolor="#ffffff"
     bordercolor="#666666"
     borderopacity="1"
     objecttolerance="10"
     gridtolerance="10"
     guidetolerance="10"
     inkscape:pageopacity="0"
     inkscape:pageshadow="2"
     inkscape:window-width="1440"
     inkscape:window-height="838"
     id="namedview3338"
     showgrid="false"
     inkscape:zoom="0.82718447"
     inkscape:cx="74.546998"
     inkscape:cy="83.865785"
     inkscape:window-x="-8"
     inkscape:window-y="-8"
     inkscape:window-maximized="1"
     inkscape:current-layer="svg3336" />
  <path
     style="fill:none;fill-rule:evenodd;stroke:#000000;stroke-width:1px;stroke-linecap:butt;stroke-linejoin:miter;stroke-opacity:1"
     d="m 0.85483566,19.59336 3.41934264,-1.709671 7.2661027,0.213709 4.915306,0.641127 3.633051,0 3.419343,0.213709 1.92338,0.641126 1.495962,0 12.395117,-6.838685 3.205634,-3.6330514 3.419343,0.4274178 3.419343,-0.8548357 1.282253,-0.8548356 3.419343,-4.7015962 41.673238,-0.2137089 0.213709,-2.99192482 2.564507,0.21370891 2.99192,3.20563371 14.10479,3.4193427 36.97165,35.9030975 5.12901,0.641127 -2.13709,1.495962 1.28225,2.350799 2.3508,-0.854836 0,44.237745 16.02817,0 -0.21371,36.75793 1.49596,0.64113 0.21371,-0.64113 3.63305,-0.85483 0.21371,2.13709 1.49597,0.21371 3.84676,2.99192 1.49596,-1.06854 5.12901,2.77821 5.77014,-2.5645 6.62498,2.5645 -0.42742,3.84676 1.28226,1.06855 -2.99193,3.63305 -1.49596,3.84676 -0.21371,6.19756 2.13709,4.9153 3.84676,6.41127 7.47981,4.48789 4.91531,4.9153 2.13709,8.33465 -0.64113,9.6169 -3.41934,1.28226 -5.77014,-0.42742 -2.99193,-2.13709 0.21371,-3.84676 3.84676,0 -1.49596,-1.06855 -1.28226,-4.27417 -2.13708,2.13708 -0.21371,-3.63305 -3.63306,0 -0.2137,3.41935 -3.41935,-0.42742 -1.49596,-2.3508 0.21371,-3.84676 -77.14892,0.21371 -12.39512,-3.41934 -1.92338,0 1.28226,19.2338 -75.225541,0 L 33.5523,192.91129 0,193.125 Z"
     id="path4161"
     inkscape:connector-curvature="0" />
</svg>
